<?xml version="1.0" encoding="UTF-8"?> <svg xmlns="http://www.w3.org/2000/svg" width="99" height="45" viewBox="0 0 99 45" fill="none"><path d="M76.8736 44.9975L21.4657 44.2723C9.43055 44.0819 -0.176113 34.0276 0.00244944 21.7975C0.18994 9.57629 10.0912 -0.178834 22.1264 0.00248729L77.5343 0.727776C89.5694 0.909098 99.1762 10.9725 98.9975 23.1936C98.8101 35.4238 88.9088 45.1789 76.8736 44.9975Z" fill="#C6FF47"></path><path d="M34.5224 12.9113L32.6955 24.4614H32.3301L30.5833 12.9113L22.616 12.8569L20.7891 24.389L20.4148 24.3799L18.6769 12.9113L13.0356 12.8751L16.6272 34.6064L24.5142 34.6608L26.3769 23.029H26.7512L28.5336 34.688L36.4208 34.7334L40.1638 12.9476L34.5224 12.9113Z" fill="black"></path><path d="M49.3597 21.22L46.252 21.1926L47.6183 12.8933L41.9743 12.8569L38.4021 34.5517L44.0373 34.5881L45.4125 26.2887L48.5203 26.307L47.154 34.6063L52.789 34.6427L56.3701 12.957L50.735 12.9206L49.3597 21.22Z" fill="black"></path><path d="M63.0652 12.8569H57.4282L57.427 34.6427H63.0641L63.0652 12.8569Z" fill="black"></path><path d="M70.3204 29.5214L74.3108 17.305L74.3382 12.9297L64.1574 12.8569L64.1302 17.9509L68.1206 17.9782L64.1483 30.149L64.1211 34.5698L74.2564 34.6427L74.2927 29.5487L70.3204 29.5214Z" fill="black"></path><path d="M81.5945 29.5193L85.5849 17.2978L85.6122 12.9206L75.4314 12.8569L75.4042 17.953L79.3946 17.9803L75.4224 30.1472L75.3951 34.579L85.5304 34.6427L85.5667 29.5466L81.5945 29.5193Z" fill="black"></path><path d="M60.2608 5.71439C58.7041 5.70673 57.4347 6.97826 57.4272 8.55619C57.4196 10.1341 58.6739 11.421 60.2305 11.4286C61.787 11.4363 63.0565 10.1647 63.0641 8.58683C63.0717 7.0089 61.8173 5.7297 60.2608 5.71439Z" fill="black"></path></svg> 